# xmcd
#
# Track frame offsets:
#	300
#	17483
#	32682
#	53855
#	67876
#	83848
#	104006
#	119523
#	132387
#	152286
#	168870
#	189462
#
# Disc length: 2892 seconds
#
# Revision: 0
# Processed by: cddbd v1.5.2PL0 Copyright (c) Steve Scherf et al.
# Submitted via: audiograbber 1.83.01
#
DISCID=950b480c
DTITLE=CDPool - Street February 09 CD1
DYEAR=2009
DGENRE=R&B
TTITLE0=Pussycat Dolls Ft Missy Elliott - Whatcha Think About That
TTITLE1=T.I. Ft Justin Timberlake - Dead and Gone
TTITLE2=Alesha Dixon Ft Scottie B and Truth - Breathe Slow (Blackout Entertainmen
TTITLE2=t Remix)
TTITLE3=Madcon - Liar (Album Version)
TTITLE4=Anthoney Wright - No Me Without You
TTITLE5=Fusion Untld Ft Little Brother, Nickelus F, Hall Of Fame and Skillz - The
TTITLE5=Sun (Clean Version)
TTITLE6=Dap-C Ft Shola Ama and Lil' Wayne - Everything To Me (Dirty Version)
TTITLE7=Xrabit and DMGS - Damaged Goods
TTITLE8=Royce Da 5'9'' - Shake This (Street)(Explicit)
TTITLE9=Greenjade - Kick Off Ya Shoes (SpiritLed Remix)
TTITLE10=Beef Wellington - Magnetic (Omegaman Remix)
TTITLE11=Heston Ft Angela Johnson - Dreamy Eyes (Album Version)
EXTD=
EXTT0=
EXTT1=
EXTT2=
EXTT3=
EXTT4=
EXTT5=
EXTT6=
EXTT7=
EXTT8=
EXTT9=
EXTT10=
EXTT11=
PLAYORDER=
